<?xml version="1.0" encoding="utf-8"?>
<!-- Generator: Adobe Illustrator 25.2.0, SVG Export Plug-In . SVG Version: 6.00 Build 0)  -->
<svg version="1.1" id="Capa_1" xmlns="http://www.w3.org/2000/svg" xmlns:xlink="http://www.w3.org/1999/xlink" x="0px" y="0px"
	 viewBox="0 0 849 230" style="enable-background:new 0 0 849 230;" xml:space="preserve">
<style type="text/css">
	.st0{fill:#FFFFFF;}
</style>
<g>
	<path class="st0" d="M127.6,103.15c10.9,4.15,19.41,10.2,25.52,18.16c6.1,7.96,10.14,16.63,12.11,26.01
		c1.96,9.38,2.01,18.93,0.16,28.63c-1.86,9.71-5.4,18.54-10.63,26.5c-5.24,7.96-12.06,14.51-20.45,19.63
		c-8.4,5.13-18.05,7.69-28.95,7.69H10.48v-7.2c4.14,0,7.74-2.56,10.79-7.69c3.05-5.12,4.8-12.7,5.24-22.74
		c1.31-18.32,1.96-43.95,1.96-76.88c0-32.72-0.65-58.24-1.96-76.56c-0.44-10.25-2.18-17.94-5.24-23.07
		c-3.06-5.12-6.65-7.69-10.79-7.69v-7.2h86.04c11.78,0,21.76,1.91,29.94,5.73c8.18,3.82,14.72,8.78,19.63,14.89
		c4.91,6.11,8.18,12.98,9.82,20.61c1.64,7.64,1.69,15.21,0.17,22.74c-1.53,7.52-4.69,14.72-9.49,21.59
		C141.78,93.17,135.46,98.79,127.6,103.15z M76.24,17.43c-0.44,7.42-0.77,17.45-0.98,30.1c-0.22,12.65-0.33,28.25-0.33,46.79
		c7.2-1.31,13.19-4.09,17.99-8.34c4.8-4.25,8.45-9.21,10.96-14.89c2.5-5.67,3.81-11.61,3.93-17.83c0.11-6.22-0.98-11.99-3.27-17.34
		c-2.29-5.34-5.78-9.76-10.47-13.25C89.38,19.18,83.44,17.43,76.24,17.43z M76.24,212.42c7.2-0.43,13.41-3,18.65-7.69
		c5.23-4.69,9.32-10.52,12.27-17.5c2.94-6.98,4.74-14.5,5.4-22.57c0.65-8.07,0.05-15.76-1.8-23.07c-1.86-7.3-5.02-13.63-9.49-18.98
		c-4.48-5.34-10.42-8.56-17.83-9.65h-8.51c0,16.58,0.05,33.16,0.16,49.73C75.2,179.27,75.58,195.85,76.24,212.42z"/>
	<path class="st0" d="M323.57,0.74v7.2c-4.15,0-8.24,2.89-12.27,8.67c-4.04,5.78-8.02,13.04-11.94,21.76
		c-6.11,13.74-11.73,27.48-16.85,41.22c-5.13,13.74-9.87,27.7-14.23,41.88c0,15.92,0.21,29.88,0.65,41.88
		c0.43,12,0.87,22.47,1.31,31.41c1.31,18.54,5.99,27.81,14.07,27.81v7.2h-80.48v-7.2c3.93,0,7.41-2.4,10.47-7.2
		c3.05-4.8,4.91-12.11,5.56-21.92c0.43-8.72,0.87-19.08,1.31-31.08c0.43-11.99,0.65-25.85,0.65-41.55
		c-5.02-14.4-10.36-28.52-16.03-42.37c-5.67-13.85-12-27.64-18.97-41.39c-4.58-9.16-8.62-16.3-12.11-21.43
		c-3.49-5.12-7.31-7.69-11.45-7.69v-7.2h76.56v7.2c-6.98,0-8.62,7.52-4.91,22.57c2.18,7.2,4.58,14.23,7.2,21.1
		c2.62,6.87,5.67,13.58,9.16,20.12c2.4-5.67,4.69-11.39,6.87-17.18c2.18-5.78,4.14-11.61,5.89-17.5c2.4-9.38,3.76-16.57,4.09-21.59
		c0.33-5.01-1.58-7.52-5.73-7.52v-7.2H323.57z"/>
	<path class="st0" d="M464.91,192.14c4.14,9.81,7.69,17.34,10.63,22.57c2.94,5.23,6.49,7.85,10.63,7.85v7.2h-61.51
		c-7.2-33.37-16.36-65.98-27.48-97.82h-4.91c0,12.65,0.05,23.94,0.16,33.86c0.11,9.93,0.27,18.7,0.49,26.34v-0.33
		c1.09,20.5,5.89,30.75,14.39,30.75v7.2h-79.5v-7.2c4.14,0,7.74-2.56,10.79-7.69c3.05-5.12,4.8-12.7,5.24-22.74
		c1.31-18.32,1.96-43.95,1.96-76.88c0-32.72-0.65-58.24-1.96-76.56c-0.44-10.25-2.18-17.94-5.24-23.07
		c-3.06-5.12-6.65-7.69-10.79-7.69v-7.2h86.04c11.99,0,22.13,2.29,30.42,6.87c8.29,4.58,14.89,10.58,19.8,18
		c4.91,7.42,8.06,15.7,9.49,24.86c1.42,9.16,1.2,18.21-0.65,27.15c-1.86,8.95-5.35,17.4-10.47,25.36
		c-5.13,7.96-11.94,14.45-20.45,19.47c3.05,12,6.49,23.78,10.31,35.33C456.13,169.35,460.33,180.8,464.91,192.14z M392.28,116.89
		c7.2-1.74,13.19-5.45,17.99-11.12c4.8-5.67,8.45-12.21,10.96-19.63c2.5-7.41,3.81-15.32,3.93-23.72
		c0.11-8.39-0.98-16.08-3.27-23.07c-2.29-6.98-5.78-12.76-10.47-17.34c-4.69-4.58-10.63-6.98-17.83-7.2
		c-0.44,17.01-0.77,34.02-0.98,51.04C392.38,82.86,392.28,99.88,392.28,116.89z"/>
	<path class="st0" d="M669.71,7.94c-3.71,0-7.03,2.18-9.98,6.54c-2.94,4.37-4.96,10.91-6.05,19.63c-0.44,9.38-0.87,20.77-1.31,34.19
		c-0.44,13.41-0.65,29.07-0.65,46.95c0,20.07,0.27,37.3,0.82,51.69c0.54,14.4,1.15,26.29,1.8,35.66
		c0.65,10.91,1.42,20.07,2.29,27.48h-41.88l0.33-0.98c-0.65-1.31-2.13-4.09-4.42-8.34c-2.29-4.25-5.13-9.54-8.51-15.87
		c-3.38-6.32-7.25-13.36-11.61-21.1c-4.37-7.74-9-15.81-13.91-24.21c-4.91-8.39-9.98-16.79-15.21-25.19
		c-5.23-8.39-10.47-16.41-15.7-24.05v4.91c0,20.07,0.27,37.3,0.82,51.69c0.54,14.4,1.15,26.29,1.8,35.66
		c0.87,10.91,1.74,20.07,2.62,27.48l-54.96-0.33v-7.2c4.14,0,7.74-2.56,10.79-7.69c3.05-5.12,4.8-12.81,5.24-23.06v0.33
		c0.43-9.38,0.87-20.39,1.31-33.04c0.43-12.65,0.65-27.26,0.65-43.84c0-16.57-0.22-31.25-0.65-44.01
		c-0.44-12.76-0.87-23.72-1.31-32.88c-0.44-10.03-2.18-17.61-5.24-22.74c-3.06-5.12-6.65-7.69-10.79-7.69v-7.2h54.96
		c5.67,11.12,11.99,23.34,18.98,36.64c6.1,11.12,13.36,24.21,21.76,39.26c8.39,15.05,17.83,31.19,28.3,48.42
		c0-15.05-0.11-30.1-0.33-45.15c-0.22-15.05-0.77-30.1-1.64-45.15c-0.87-8.94-2.84-15.65-5.89-20.12
		c-3.06-4.47-6.43-6.71-10.14-6.71v-7.2h67.72V7.94z"/>
	<path class="st0" d="M829.7,192.79c2.4,8.51,5.23,15.6,8.51,21.27c3.27,5.68,6.87,8.51,10.8,8.51v7.2h-75.91v-7.2
		c7.41,0,9.6-9.92,6.54-29.77c-0.44-2.4-0.93-5.07-1.47-8.02c-0.55-2.94-1.14-5.94-1.8-9h-46.46c-0.44,3.06-0.93,6.05-1.47,9
		c-0.55,2.95-1.04,5.62-1.47,8.02c-0.65,3.93-1.04,7.64-1.14,11.12c-0.11,3.49,0.11,6.65,0.65,9.49c0.54,2.84,1.42,5.07,2.62,6.71
		c1.2,1.64,2.78,2.45,4.74,2.45v7.2h-59.54v-7.2c3.7,0,7.2-2.67,10.47-8.02c3.27-5.34,6.21-12.6,8.83-21.76
		c2.62-9.16,5.56-20.12,8.83-32.88c3.27-12.76,6.76-27.64,10.47-44.66c3.71-17.01,6.81-31.9,9.32-44.66
		c2.51-12.76,4.52-23.83,6.05-33.21c0.66-3.7,1.03-7.36,1.15-10.96c0.11-3.6-0.11-6.76-0.65-9.49c-0.55-2.73-1.42-4.91-2.62-6.54
		c-1.2-1.64-2.78-2.45-4.74-2.45v-7.2h80.48v7.2c-1.96,0-3.55,0.82-4.74,2.45c-1.2,1.64-2.08,3.82-2.62,6.54
		c-0.55,2.73-0.77,5.89-0.65,9.49c0.11,3.6,0.49,7.25,1.14,10.96c4.58,26.39,9.76,52.46,15.54,78.19
		C816.33,141.32,822.71,167.06,829.7,192.79z M770.15,143.72c-0.87-4.36-1.86-8.94-2.94-13.74c-1.09-4.79-2.18-9.7-3.27-14.72
		c-1.75-8.72-3.55-16.85-5.4-24.37c-1.86-7.53-3.66-14.67-5.4-21.43c-1.75,6.76-3.49,13.9-5.24,21.43
		c-1.75,7.52-3.6,15.65-5.56,24.37c-1.09,5.02-2.13,9.93-3.11,14.72c-0.98,4.8-1.91,9.38-2.78,13.74H770.15z"/>
</g>
</svg>
